#N canvas 660 161 1366 685 12;
#X obj 58 25 inlet~;
#X obj 142 25 inlet~;
#X obj 58 49 *~ 0.5;
#X obj 142 49 *~ 0.5;
#X obj 58 88 +~;
#X obj 124 88 -~;
#X obj 58 112 outlet~;
#X obj 124 112 outlet~;
#N canvas 104 104 1366 685 help 0;
#X obj 38 71 cnv 15 134 39 empty empty empty 20 12 0 14 #c4c4fc #404040
0;
#X obj 48 81 sig~;
#X text 35 47 INLET 0:;
#X obj 207 71 cnv 15 134 39 empty empty empty 20 12 0 14 #c4c4fc #404040
0;
#X obj 217 81 sig~;
#X text 204 47 INLET 1:;
#X obj 412 71 cnv 15 129 39 empty empty empty 20 12 0 14 #c4fcfc #404040
0;
#X obj 422 81 sig~;
#X obj 581 71 cnv 15 135 39 empty empty empty 20 12 0 14 #c4fcfc #404040
0;
#X obj 591 81 sig~;
#X text 409 47 OUTLET 0:;
#X text 578 47 OUTLET 1:;
#X text 88 81 canal izq.;
#X text 257 81 canal der.;
#X text 463 80 señal mid;
#X text 631 81 señal side;
#X restore 392 90 pd help;
#X connect 0 0 2 0;
#X connect 1 0 3 0;
#X connect 2 0 4 0;
#X connect 2 0 5 0;
#X connect 3 0 4 1;
#X connect 3 0 5 1;
#X connect 4 0 6 0;
#X connect 5 0 7 0;
