#N canvas -8 -8 1366 685 12;
#X obj 180 124 random 100;
#X obj 344 44 inlet;
#N canvas -8 -8 1366 685 route-inlet-messages 0;
#X obj 37 37 inlet;
#X msg 188 272 unrecognized message;
#N canvas 676 0 681 676 state 0;
#X obj 66 30 inlet;
#N canvas 657 93 669 300 global 0;
#X obj 54 60 f;
#X obj 54 7 inlet;
#X obj 54 210 outlet;
#X obj 54 152 pack f;
#X msg 54 181 add2 \$1;
#X obj 72 36 r \$0-chance;
#X connect 0 0 3 0;
#X connect 1 0 0 0;
#X connect 3 0 4 0;
#X connect 4 0 2 0;
#X connect 5 0 0 1;
#X restore 66 117 pd global;
#X obj 66 59 t b b;
#X msg 98 88 set;
#X obj 66 146 s \$0-state;
#X connect 0 0 2 0;
#X connect 1 0 4 0;
#X connect 2 0 1 0;
#X connect 2 1 3 0;
#X connect 3 0 4 0;
#X restore 137 243 pd state;
#X obj 37 66 route bang float state;
#X obj 37 95 s \$0-randomize-r;
#X obj 87 177 s \$0-chance-r;
#X obj 188 301 print probs INLET;
#X obj 87 124 expr if($f1>100 \, 100 \, $f1);
#X obj 87 148 expr if($f1<0 \, 0 \, $f1);
#X connect 0 0 3 0;
#X connect 1 0 6 0;
#X connect 3 0 4 0;
#X connect 3 1 7 0;
#X connect 3 2 2 0;
#X connect 3 3 1 0;
#X connect 7 0 8 0;
#X connect 8 0 5 0;
#X restore 344 73 pd route-inlet-messages;
#X obj 180 100 r \$0-randomize;
#X obj 180 172 <;
#X obj 198 148 r \$0-chance;
#X obj 180 196 sel 1;
#X obj 180 220 outlet;
#X obj 101 104 cnv 15 61 25 empty empty empty 20 12 0 14 #fcfcfc #404040
0;
#X obj 106 111 bng 10 250 50 0 \$0-randomize \$0-randomize-r empty
17 7 0 10 #fc80c0 #fcfcfc #8080fc;
#X obj 121 109 nbx 3 15 -1e+37 1e+37 0 0 \$0-chance \$0-chance-r empty
0 -8 0 10 #fc80c0 #fcfcfc #8080fc 0 256;
#X obj 236 196 r \$0-state;
#X obj 236 220 outlet;
#N canvas -8 -8 1366 685 help 0;
#X obj 38 71 cnv 15 447 68 empty empty empty 20 12 0 14 #c4c4fc #404040
0;
#X obj 546 71 cnv 15 422 39 empty empty empty 20 12 0 14 #c4fcfc #404040
0;
#X text 543 47 OUTLET 0:;
#X text 35 47 INLET 0:;
#X text 596 81 if random number is between 0 and given probability
;
#X obj 48 110 bang;
#X obj 48 81 float;
#X obj 556 81 bang;
#X text 96 80 probabilidad (0-100%);
#X text 87 103 genera un número random entre 0 y 100 y comprueba si
se encuentra entre 0 y la probabilidad dada;
#X obj 38 160 cnv 15 448 66 empty empty empty 20 12 0 14 #c7c6ff #404040
0;
#X obj 48 170 cnv 15 428 46 empty empty empty 20 12 0 14 #ffffff #404040
0;
#X text 56 176 adicionalmente \, se puede dar el valor de probabilidad
como argumento inicial del objeto \, por ejemplo [probs 75];
#X connect 6 0 5 0;
#X restore 17 14 pd help;
#X obj 367 152 loadbang;
#X obj 367 176 f \$1;
#X obj 367 200 s \$0-chance-r;
#X connect 0 0 4 0;
#X connect 1 0 2 0;
#X connect 3 0 0 0;
#X connect 4 0 6 0;
#X connect 5 0 4 1;
#X connect 6 0 7 0;
#X connect 11 0 12 0;
#X connect 14 0 15 0;
#X connect 15 0 16 0;
#X coords 0 -1 1 1 63 33 2 100 100;
